<svg id="Layer_1" data-name="Layer 1" xmlns="http://www.w3.org/2000/svg" xmlns:xlink="http://www.w3.org/1999/xlink" viewBox="0 0 171.39 261.92"><defs><style>.cls-1,.cls-2,.cls-3,.cls-5{fill-rule:evenodd;}.cls-1{fill:url(#linear-gradient);}.cls-2{fill:url(#linear-gradient-2);}.cls-3{fill:url(#linear-gradient-3);}.cls-4,.cls-5{fill:#fff;}.cls-4{fill-opacity:0.85;}.cls-5{fill-opacity:0.9;}.cls-6{font-size:103px;font-family:Ubuntu;letter-spacing:0.01em;}.cls-7{letter-spacing:0.04em;}</style><linearGradient id="linear-gradient" x1="464.96" y1="319.34" x2="401.54" y2="358.81" gradientTransform="matrix(1, 0, 0, -1, 0, 602)" gradientUnits="userSpaceOnUse"><stop offset="0.53" stop-color="#333"/><stop offset="1" stop-color="#4d4d4d"/></linearGradient><linearGradient id="linear-gradient-2" x1="332" y1="339.07" x2="399.5" y2="339.07" gradientTransform="matrix(1, 0, 0, -1, 0, 602)" gradientUnits="userSpaceOnUse"><stop offset="0" stop-color="#0a0a0a"/><stop offset="1"/></linearGradient><linearGradient id="linear-gradient-3" x1="400.68" y1="435.2" x2="398.32" y2="358.34" gradientTransform="matrix(1, 0, 0, -1, 0, 602)" gradientUnits="userSpaceOnUse"><stop offset="0" stop-color="#999"/><stop offset="0.41" stop-color="#666"/><stop offset="1" stop-color="#b3b3b3"/></linearGradient></defs><title>kcp logo - stacked b&amp;amp;w</title><path class="cls-1" d="M467,205.23l-67.5,38.46v76.94L467,282.09V205.23" transform="translate(-314.64 -166.76)"/><path class="cls-2" d="M399.5,243.69,332,205.23v76.93l67.5,38.47V243.69" transform="translate(-314.64 -166.76)"/><path class="cls-3" d="M399.5,243.69,332,205.23l67.5-38.47L467,205.23l-67.5,38.46" transform="translate(-314.64 -166.76)"/><path class="cls-4" d="M399.5,205.23l33.75,19.23v38.47L399.5,282.16l-33.75-19.23V224.46Z" transform="translate(-314.64 -166.76)"/><path class="cls-5" d="M365.75,262.93v-4.76L332,277.25v4.91l4.18,2.39,34.11-19Z" transform="translate(-314.64 -166.76)"/><path class="cls-5" d="M399.5,205.23l4.34,2.46V169.23l-4.34-2.47-4.34,2.47,0,38.46Z" transform="translate(-314.64 -166.76)"/><path class="cls-5" d="M433.25,262.93v-4.76L467,277.42v4.67l-4.28,2.45L429,265.38Z" transform="translate(-314.64 -166.76)"/><text class="cls-6" transform="translate(0 242.45)">k<tspan class="cls-7" x="55" y="0">cp</tspan></text></svg>