<svg id="Layer_1" data-name="Layer 1" xmlns="http://www.w3.org/2000/svg" xmlns:xlink="http://www.w3.org/1999/xlink" viewBox="0 0 135 153.87"><defs><style>.cls-1,.cls-2,.cls-3,.cls-5{fill-rule:evenodd;}.cls-1{fill:url(#linear-gradient);}.cls-2{fill:url(#linear-gradient-2);}.cls-3{fill:url(#linear-gradient-3);}.cls-4,.cls-5{fill:#fff;}.cls-4{fill-opacity:0.85;}.cls-5{fill-opacity:0.9;}</style><linearGradient id="linear-gradient" x1="367.96" y1="290.34" x2="304.54" y2="329.81" gradientTransform="matrix(1, 0, 0, -1, 0, 602)" gradientUnits="userSpaceOnUse"><stop offset="0.53" stop-color="#333"/><stop offset="1" stop-color="#4d4d4d"/></linearGradient><linearGradient id="linear-gradient-2" x1="235" y1="310.07" x2="302.5" y2="310.07" gradientTransform="matrix(1, 0, 0, -1, 0, 602)" gradientUnits="userSpaceOnUse"><stop offset="0" stop-color="#0a0a0a"/><stop offset="1"/></linearGradient><linearGradient id="linear-gradient-3" x1="303.68" y1="406.2" x2="301.32" y2="329.34" gradientTransform="matrix(1, 0, 0, -1, 0, 602)" gradientUnits="userSpaceOnUse"><stop offset="0" stop-color="gray"/><stop offset="0.41" stop-color="#666"/><stop offset="1" stop-color="#999"/></linearGradient></defs><title>kcp logo icon b&amp;amp;w</title><path class="cls-1" d="M370,234.23l-67.5,38.46v76.94L370,311.09V234.23" transform="translate(-235 -195.76)"/><path class="cls-2" d="M302.5,272.69,235,234.23v76.93l67.5,38.47V272.69" transform="translate(-235 -195.76)"/><path class="cls-3" d="M302.5,272.69,235,234.23l67.5-38.47L370,234.23l-67.5,38.46" transform="translate(-235 -195.76)"/><path class="cls-4" d="M302.5,234.23l33.75,19.23v38.47L302.5,311.16l-33.75-19.23V253.46Z" transform="translate(-235 -195.76)"/><path class="cls-5" d="M268.75,291.93v-4.76L235,306.25v4.91l4.18,2.39,34.11-19Z" transform="translate(-235 -195.76)"/><path class="cls-5" d="M302.5,234.23l4.34,2.46V198.23l-4.34-2.47-4.34,2.47,0,38.46Z" transform="translate(-235 -195.76)"/><path class="cls-5" d="M336.25,291.93v-4.76L370,306.42v4.67l-4.28,2.45L332,294.38Z" transform="translate(-235 -195.76)"/></svg>