<svg id="Layer_1" data-name="Layer 1" xmlns="http://www.w3.org/2000/svg" xmlns:xlink="http://www.w3.org/1999/xlink" viewBox="0 0 329.37 153.87"><defs><style>.cls-1,.cls-2,.cls-3,.cls-5{fill-rule:evenodd;}.cls-1{fill:url(#linear-gradient);}.cls-2{fill:url(#linear-gradient-2);}.cls-3{fill:url(#linear-gradient-3);}.cls-4,.cls-5{fill:#fff;}.cls-4{fill-opacity:0.85;}.cls-5{fill-opacity:0.9;}.cls-6{font-size:99px;fill:#4666c9;font-family:Ubuntu;letter-spacing:0.01em;}.cls-7{letter-spacing:0.04em;}</style><linearGradient id="linear-gradient" x1="362.96" y1="263.34" x2="299.54" y2="302.81" gradientTransform="matrix(1, 0, 0, -1, 0, 602)" gradientUnits="userSpaceOnUse"><stop offset="0.53" stop-color="#3cd3f6"/><stop offset="1" stop-color="#aaedff"/></linearGradient><linearGradient id="linear-gradient-2" x1="230" y1="283.07" x2="297.5" y2="283.07" gradientTransform="matrix(1, 0, 0, -1, 0, 602)" gradientUnits="userSpaceOnUse"><stop offset="0" stop-color="#54ff85"/><stop offset="1" stop-color="#aff456"/></linearGradient><linearGradient id="linear-gradient-3" x1="298.68" y1="379.2" x2="296.32" y2="302.34" gradientTransform="matrix(1, 0, 0, -1, 0, 602)" gradientUnits="userSpaceOnUse"><stop offset="0" stop-color="#3d50ff"/><stop offset="0.41" stop-color="#3d97ff"/><stop offset="1" stop-color="#e1d2ff"/></linearGradient></defs><title>kcp logo</title><path class="cls-1" d="M365,261.23l-67.5,38.46v76.94L365,338.09V261.23" transform="translate(-230 -222.76)"/><path class="cls-2" d="M297.5,299.69,230,261.23v76.93l67.5,38.47V299.69" transform="translate(-230 -222.76)"/><path class="cls-3" d="M297.5,299.69,230,261.23l67.5-38.47L365,261.23l-67.5,38.46" transform="translate(-230 -222.76)"/><path class="cls-4" d="M297.5,261.23l33.75,19.23v38.47L297.5,338.16l-33.75-19.23V280.46Z" transform="translate(-230 -222.76)"/><path class="cls-5" d="M263.75,318.93v-4.76L230,333.25v4.91l4.18,2.39,34.11-19Z" transform="translate(-230 -222.76)"/><path class="cls-5" d="M297.5,261.23l4.34,2.46V225.23l-4.34-2.47-4.34,2.47,0,38.46Z" transform="translate(-230 -222.76)"/><path class="cls-5" d="M331.25,318.93v-4.76L365,333.42v4.67l-4.28,2.45L327,321.38Z" transform="translate(-230 -222.76)"/><text class="cls-6" transform="translate(164.64 115.45)">k<tspan class="cls-7" x="52.87" y="0">cp</tspan></text></svg>