<svg id="Layer_1" data-name="Layer 1" xmlns="http://www.w3.org/2000/svg" xmlns:xlink="http://www.w3.org/1999/xlink" viewBox="0 0 171.39 261.92"><defs><style>.cls-1,.cls-2,.cls-3,.cls-5{fill-rule:evenodd;}.cls-1{fill:url(#linear-gradient);}.cls-2{fill:url(#linear-gradient-2);}.cls-3{fill:url(#linear-gradient-3);}.cls-4,.cls-5,.cls-6{fill:#fff;}.cls-4{fill-opacity:0.85;}.cls-5{fill-opacity:0.9;}.cls-6{font-size:103px;font-family:Ubuntu;letter-spacing:0.01em;}.cls-7{letter-spacing:0.04em;}</style><linearGradient id="linear-gradient" x1="482.96" y1="325.34" x2="419.54" y2="364.81" gradientTransform="matrix(1, 0, 0, -1, 0, 602)" gradientUnits="userSpaceOnUse"><stop offset="0.53" stop-color="#adadad"/><stop offset="1" stop-color="#b8b8b8"/></linearGradient><linearGradient id="linear-gradient-2" x1="350" y1="345.07" x2="417.5" y2="345.07" gradientTransform="matrix(1, 0, 0, -1, 0, 602)" gradientUnits="userSpaceOnUse"><stop offset="0" stop-color="#9e9e9e"/><stop offset="1" stop-color="#999"/></linearGradient><linearGradient id="linear-gradient-3" x1="418.68" y1="441.2" x2="416.32" y2="364.34" gradientTransform="matrix(1, 0, 0, -1, 0, 602)" gradientUnits="userSpaceOnUse"><stop offset="0" stop-color="#ccc"/><stop offset="0.41" stop-color="#c2c2c2"/><stop offset="1" stop-color="#d6d6d6"/></linearGradient></defs><title>kcp logo - white stacked</title><path class="cls-1" d="M485,199.23l-67.5,38.46v76.94L485,276.09V199.23" transform="translate(-332.64 -160.76)"/><path class="cls-2" d="M417.5,237.69,350,199.23v76.93l67.5,38.47V237.69" transform="translate(-332.64 -160.76)"/><path class="cls-3" d="M417.5,237.69,350,199.23l67.5-38.47L485,199.23l-67.5,38.46" transform="translate(-332.64 -160.76)"/><path class="cls-4" d="M417.5,199.23l33.75,19.23v38.47L417.5,276.16l-33.75-19.23V218.46Z" transform="translate(-332.64 -160.76)"/><path class="cls-5" d="M383.75,256.93v-4.76L350,271.25v4.91l4.18,2.39,34.11-19Z" transform="translate(-332.64 -160.76)"/><path class="cls-5" d="M417.5,199.23l4.34,2.46V163.23l-4.34-2.47-4.34,2.47,0,38.46Z" transform="translate(-332.64 -160.76)"/><path class="cls-5" d="M451.25,256.93v-4.76L485,271.42v4.67l-4.28,2.45L447,259.38Z" transform="translate(-332.64 -160.76)"/><text class="cls-6" transform="translate(0 242.45)">k<tspan class="cls-7" x="55" y="0">cp</tspan></text></svg>