<svg id="Layer_1" data-name="Layer 1" xmlns="http://www.w3.org/2000/svg" xmlns:xlink="http://www.w3.org/1999/xlink" viewBox="0 0 135 153.87"><defs><style>.cls-1,.cls-2,.cls-3,.cls-5{fill-rule:evenodd;}.cls-1{fill:url(#linear-gradient);}.cls-2{fill:url(#linear-gradient-2);}.cls-3{fill:url(#linear-gradient-3);}.cls-4,.cls-5{fill:#fff;}.cls-4{fill-opacity:0.85;}.cls-5{fill-opacity:0.9;}</style><linearGradient id="linear-gradient" x1="388.96" y1="263.34" x2="325.54" y2="302.81" gradientTransform="matrix(1, 0, 0, -1, 0, 602)" gradientUnits="userSpaceOnUse"><stop offset="0.53" stop-color="#bcbcbc"/><stop offset="1" stop-color="#c4c4c4"/></linearGradient><linearGradient id="linear-gradient-2" x1="256" y1="283.07" x2="323.5" y2="283.07" gradientTransform="matrix(1, 0, 0, -1, 0, 602)" gradientUnits="userSpaceOnUse"><stop offset="0" stop-color="#afafaf"/><stop offset="1" stop-color="#ababab"/></linearGradient><linearGradient id="linear-gradient-3" x1="324.68" y1="379.2" x2="322.32" y2="302.34" gradientTransform="matrix(1, 0, 0, -1, 0, 602)" gradientUnits="userSpaceOnUse"><stop offset="0" stop-color="#d5d5d5"/><stop offset="0.41" stop-color="#cdcdcd"/><stop offset="1" stop-color="#ddd"/></linearGradient></defs><title>kcp logo - icon white</title><path class="cls-1" d="M391,261.23l-67.5,38.46v76.94L391,338.09V261.23" transform="translate(-256 -222.76)"/><path class="cls-2" d="M323.5,299.69,256,261.23v76.93l67.5,38.47V299.69" transform="translate(-256 -222.76)"/><path class="cls-3" d="M323.5,299.69,256,261.23l67.5-38.47L391,261.23l-67.5,38.46" transform="translate(-256 -222.76)"/><path class="cls-4" d="M323.5,261.23l33.75,19.23v38.47L323.5,338.16l-33.75-19.23V280.46Z" transform="translate(-256 -222.76)"/><path class="cls-5" d="M289.75,318.93v-4.76L256,333.25v4.91l4.18,2.39,34.11-19Z" transform="translate(-256 -222.76)"/><path class="cls-5" d="M323.5,261.23l4.34,2.46V225.23l-4.34-2.47-4.34,2.47,0,38.46Z" transform="translate(-256 -222.76)"/><path class="cls-5" d="M357.25,318.93v-4.76L391,333.42v4.67l-4.28,2.45L353,321.38Z" transform="translate(-256 -222.76)"/></svg>